<svg width="320" height="483" viewBox="0 0 320 483" fill="none" xmlns="http://www.w3.org/2000/svg">
<g clip-path="url(#clip0)">
<path d="M18.5 396C34.2401 396 47 383.016 47 367C47 350.984 34.2401 338 18.5 338C2.75988 338 -10 350.984 -10 367C-10 383.016 2.75988 396 18.5 396Z" fill="#FFA0B7"/>
<path d="M-78.894 555.554L-121.323 495.421C-122.502 493.733 -121.944 491.398 -120.112 490.453L109.085 372.479C112.385 370.775 115.459 375.087 112.798 377.635L-72.1276 556.207C-74.113 558.103 -77.3063 557.809 -78.894 555.554ZM-115.996 496.718L-78.3712 550.052C-76.7779 552.283 -73.5902 552.6 -71.6048 550.705L92.696 392.036C95.3621 389.464 92.2824 385.175 88.9827 386.879L-114.761 491.756C-116.617 492.695 -117.175 495.029 -115.996 496.718Z" fill="#897AE7"/>
<path d="M39.7967 385.578L88.9887 421.863" stroke="url(#paint0_linear)" stroke-width="4" stroke-linecap="round" stroke-dasharray="2 8"/>
<path d="M100 443C106.075 443 111 438.075 111 432C111 425.925 106.075 421 100 421C93.9249 421 89 425.925 89 432C89 438.075 93.9249 443 100 443Z" stroke="#7657ED" stroke-width="6"/>
<path d="M289.5 71.5001L37 346" stroke="url(#paint1_linear)" stroke-width="4" stroke-linecap="round" stroke-dasharray="2 8"/>
<path d="M321.48 86C345.228 86 364.48 66.7482 364.48 43C364.48 19.2518 345.228 0 321.48 0C297.732 0 278.48 19.2518 278.48 43C278.48 66.7482 297.732 86 321.48 86Z" fill="#FFD41E"/>
<path d="M232.465 23.6133L278.613 36.5348" stroke="url(#paint2_linear)" stroke-width="4" stroke-linecap="round" stroke-dasharray="2 8"/>
<path d="M213.48 34C221.764 34 228.48 27.2843 228.48 19C228.48 10.7157 221.764 4 213.48 4C205.196 4 198.48 10.7157 198.48 19C198.48 27.2843 205.196 34 213.48 34Z" stroke="#09E0A3" stroke-width="8"/>
</g>
<defs>
<linearGradient id="paint0_linear" x1="89.411" y1="424.66" x2="55.3241" y2="398.424" gradientUnits="userSpaceOnUse">
<stop stop-color="#7657ED"/>
<stop offset="1" stop-color="#FFA0B7"/>
</linearGradient>
<linearGradient id="paint1_linear" x1="276.786" y1="57.8934" x2="167.423" y2="49.2054" gradientUnits="userSpaceOnUse">
<stop offset="0.739583" stop-color="#FFD41E"/>
<stop offset="1" stop-color="#FFA0B7"/>
</linearGradient>
<linearGradient id="paint2_linear" x1="275.968" y1="37.6481" x2="230.042" y2="24.8488" gradientUnits="userSpaceOnUse">
<stop stop-color="#FFD41E"/>
<stop offset="1" stop-color="#09E0A3"/>
</linearGradient>
<clipPath id="clip0">
<rect width="320" height="558" fill="white"/>
</clipPath>
</defs>
</svg>
