<svg width="1360" height="200" viewBox="0 0 1360 200" fill="none" xmlns="http://www.w3.org/2000/svg">
<g clip-path="url(#clip0)">
<path d="M1334 151.5L51 57" stroke="url(#paint0_linear)" stroke-width="4" stroke-linecap="round" stroke-dasharray="2 8"/>
<path d="M1386.5 200C1415.49 200 1439 176.495 1439 147.5C1439 118.505 1415.49 95 1386.5 95C1357.51 95 1334 118.505 1334 147.5C1334 176.495 1357.51 200 1386.5 200Z" fill="#FFD41E"/>
<path d="M1272.83 51.8789L1342.88 116.174" stroke="url(#paint1_linear)" stroke-width="4" stroke-linecap="round" stroke-dasharray="2 8"/>
<path d="M1254 56C1264.49 56 1273 47.4934 1273 37C1273 26.5066 1264.49 18 1254 18C1243.51 18 1235 26.5066 1235 37C1235 47.4934 1243.51 56 1254 56Z" stroke="#09E0A3" stroke-width="8"/>
<path d="M12 80C34.0914 80 52 62.0914 52 40C52 17.9086 34.0914 0 12 0C-10.0914 0 -28 17.9086 -28 40C-28 62.0914 -10.0914 80 12 80Z" fill="#FFA0B7"/>
<path d="M-108.064 316.041L-186.368 246.975C-188.55 245.032 -188.55 241.623 -186.334 239.714L90.8502 1.15391C94.8387 -2.28915 100.498 2.65386 97.6682 7.05145L-98.5185 314.712C-100.632 317.984 -105.132 318.632 -108.064 316.041ZM-178.595 247.009L-109.155 308.269C-106.223 310.826 -101.723 310.212 -99.6094 306.939L74.6917 33.5733C77.5211 29.1416 71.8622 24.2327 67.8737 27.6758L-178.527 239.748C-180.777 241.657 -180.777 245.066 -178.595 247.009Z" fill="#897AE7"/>
<path d="M40.8064 68.6476L98.1476 113.194" stroke="url(#paint2_linear)" stroke-width="4" stroke-linecap="round" stroke-dasharray="2 8"/>
<path d="M112.5 136C119.956 136 126 129.956 126 122.5C126 115.044 119.956 109 112.5 109C105.044 109 99 115.044 99 122.5C99 129.956 105.044 136 112.5 136Z" stroke="#7657ED" stroke-width="6"/>
</g>
<defs>
<linearGradient id="paint0_linear" x1="1328.03" y1="151.617" x2="52.0258" y2="67.608" gradientUnits="userSpaceOnUse">
<stop offset="0.739583" stop-color="#FFD41E"/>
<stop offset="1" stop-color="#FFA0B7"/>
</linearGradient>
<linearGradient id="paint1_linear" x1="1337.17" y1="113.361" x2="1270" y2="51.9964" gradientUnits="userSpaceOnUse">
<stop stop-color="#FFD41E"/>
<stop offset="1" stop-color="#09E0A3"/>
</linearGradient>
<linearGradient id="paint2_linear" x1="98.5" y1="116" x2="59.3024" y2="84.0084" gradientUnits="userSpaceOnUse">
<stop stop-color="#7657ED"/>
<stop offset="1" stop-color="#FFA0B7"/>
</linearGradient>
<clipPath id="clip0">
<rect width="1360" height="318" fill="white"/>
</clipPath>
</defs>
</svg>
