<svg width="25" height="29" viewBox="0 0 25 29" fill="none" xmlns="http://www.w3.org/2000/svg">
<path d="M12.5 25.4614L11.6679 26.7095C12.1718 27.0454 12.8282 27.0454 13.3321 26.7095L12.5 25.4614ZM12.5 25.4614C13.3321 26.7095 13.3324 26.7093 13.3328 26.709L13.3338 26.7083L13.3363 26.7066L13.3439 26.7016L13.3686 26.6848C13.3893 26.6708 13.4183 26.6509 13.4551 26.6255C13.5287 26.5745 13.6335 26.5009 13.765 26.406C14.0278 26.2161 14.3983 25.9402 14.8406 25.588C15.723 24.8853 16.9034 23.8694 18.0889 22.618C20.3986 20.18 23 16.5643 23 12.4614C23 9.67665 21.8938 7.00594 19.9246 5.0368C17.9555 3.06767 15.2848 1.96143 12.5 1.96143C9.71523 1.96143 7.04451 3.06767 5.07538 5.0368C3.10625 7.00594 2 9.67665 2 12.4614C2 16.5643 4.60139 20.18 6.91107 22.618C8.09658 23.8694 9.277 24.8853 10.1594 25.588C10.6017 25.9402 10.9722 26.2161 11.235 26.406C11.3665 26.5009 11.4713 26.5745 11.5449 26.6255C11.5817 26.6509 11.6107 26.6708 11.6314 26.6848L11.6561 26.7016L11.6637 26.7066L11.6662 26.7083L11.6672 26.709C11.6676 26.7093 11.6679 26.7095 12.5 25.4614Z" fill="#3E3E48" stroke="white" stroke-width="3" stroke-linecap="round" stroke-linejoin="round"/>
<path d="M12.5 15.4614C14.1569 15.4614 15.5 14.1183 15.5 12.4614C15.5 10.8046 14.1569 9.46143 12.5 9.46143C10.8431 9.46143 9.5 10.8046 9.5 12.4614C9.5 14.1183 10.8431 15.4614 12.5 15.4614Z" fill="white"/>
</svg>
