<?xml version="1.0" encoding="utf-8"?>
<!-- Generator: Adobe Illustrator 24.1.0, SVG Export Plug-In . SVG Version: 6.00 Build 0)  -->
<svg version="1.1" id="Layer_1" xmlns="http://www.w3.org/2000/svg" xmlns:xlink="http://www.w3.org/1999/xlink" x="0px" y="0px"
	 viewBox="0 0 2150 850" style="enable-background:new 0 0 2150 850;" xml:space="preserve">
<style type="text/css">
	.st0{fill:#12121F;}
	.st1{fill:none;stroke:#12121F;stroke-width:8;stroke-linecap:round;stroke-miterlimit:10;}
</style>
<g id="Layer_10">
	<path class="st0" d="M543.7,479.9c0-0.2,0-0.3,0-0.5c0-0.1,0-0.2,0-0.3c0-0.2-0.1-0.3-0.1-0.5c0-0.1,0-0.1-0.1-0.2v-0.1
		c-0.1-0.1-0.1-0.2-0.2-0.3l-0.1-0.1l-0.1-0.1c-0.1-0.2-0.3-0.4-0.5-0.5l0,0L410.9,361.1l102.8-161.2c1-1.6,0.5-3.6-1.1-4.6
		c-1.2-0.8-2.8-0.7-3.9,0.3L366,318.4l-13.7-48.7c-0.5-1.8-2.4-2.8-4.1-2.3c-0.2,0.1-0.4,0.1-0.6,0.2l-29.2,14.6h-0.1l-0.1,0.1
		l-0.2,0.1c-0.1,0-0.2,0.1-0.2,0.1l-0.1,0.1c-0.1,0-0.1,0.1-0.2,0.2l-0.1,0.1l-0.1,0.1c0,0-0.1,0.1-0.1,0.2l-0.2,0.2
		c0,0-0.1,0.1-0.1,0.1c0,0.1-0.1,0.1-0.1,0.2v0.1l-0.1,0.1l-10.8,27.2l-31.7,1.9c-1.2,0.1-2.3,0.9-2.9,2c-0.7,1.5-6.9,14.8-14,30.5
		l-36.6,2.4c-1.3,0.1-2.4,0.9-2.9,2.1c-0.4,1.1-5.2,13.5-10.4,26.9l-29.8,2c-1.3,0.1-2.4,0.9-2.9,2.1c-6.1,15.6-26.1,66.8-27.9,72.8
		l-0.1,0.3c0,0.1,0,0.2-0.1,0.2c0,0.1,0,0.3,0,0.4v0.1c0,0.2,0,0.3,0,0.5c0,0,0,0.1,0,0.1c0,0.2,0.1,0.3,0.1,0.5c0,0.1,0,0.1,0,0.2
		c0.1,0.1,0.1,0.2,0.2,0.4c0,0.1,0.1,0.1,0.1,0.2v0.1l0.1,0.1l30,41.1L158,528.5c-1,1.5-0.6,3.5,0.9,4.5l36.6,25.7l-13,28.2
		c-0.4,0.8-0.4,1.8-0.1,2.7c0.3,0.9,1,1.5,1.9,1.9l136.3,55h0.1c0.1,0,0.3,0.1,0.4,0.1h0.1c0.2,0,0.4,0.1,0.6,0.1h0.2
		c0.2,0,0.4,0,0.6-0.1c0.1,0,0.2,0,0.4-0.1l0.1,0c0.1,0,0.2,0,0.2-0.1h0.1l0.1-0.1c0,0,0.1,0,0.1-0.1l0.1-0.1l0.1-0.1
		c0.1-0.1,0.2-0.2,0.3-0.2l0.1-0.1c0.1-0.1,0.1-0.1,0.1-0.2l0.1-0.1c0.1,0,0.1-0.1,0.1-0.2v-0.1l0.1-0.1c0-0.1,0.1-0.1,0.1-0.2
		c0.1-0.1,0.1-0.3,0.2-0.4v-0.1c0,0,0-0.1,0-0.2c0-0.2,0.1-0.3,0.1-0.5v-0.1l16-157.8l136.4,24.7l19.2,26.3c0.9,1.3,2.7,1.7,4.1,1.1
		l37.1-17.1c0.1,0,0.1,0,0.1,0c0.2-0.1,0.4-0.2,0.6-0.4l0.2-0.2c0.2-0.1,0.3-0.3,0.4-0.5l0.1-0.1c0.2-0.2,0.3-0.4,0.4-0.7
		c0,0,0-0.1,0-0.1l-0.5-0.1l0.5,0.1c0-0.1,0.1-0.3,0.1-0.4c0,0,0-0.1,0-0.2v-0.1l3.7-38.4C543.7,480,543.7,479.9,543.7,479.9z
		 M262.5,350.5c6.5-14.2,12.3-26.9,14.2-30.9l22.1-1.3L262.5,350.5z M369.3,324.4l126.5-108.9l-90,141.1L369.3,324.4z M470.5,491.5
		l-63-75.5l30.2-20L470.5,491.5z M325.7,286l21.2-10.5l11,38.9L325.7,286z M376.3,436.8l25.5-16.9l60.9,73L376.3,436.8z
		 M394.5,378.2L342.8,310l91.2,80.5L404.4,410l-9.4-30.8c0-0.1-0.1-0.3-0.2-0.4v-0.1C394.8,378.5,394.7,378.4,394.5,378.2
		L394.5,378.2z M370.6,381.9l18.6,1.5l6.5,21.3L370.6,381.9z M361.3,374.4c-1.8-0.1-3.5,1.2-3.6,3.1c-0.1,1,0.3,2.1,1.1,2.8
		l38.3,34.7l-25.6,16.9l-59.6-117.7l8.8-22.2l63.9,84.3L361.3,374.4z M463.6,501.3L344,479.7l27.1-38.4L463.6,501.3z M334,482.3
		l-45.4,68.6l-3.9-127L334,482.3z M296.1,629.3l-105.9-42.7l11-23.9L296.1,629.3z M154.5,455.4l66.7-59.2l-44.5,89.6L154.5,455.4z
		 M157.7,443.6c5.6-14.9,15.5-40.2,22.5-58.1l24.6-1.7c-5.8,15.2-9.4,24.4-10.4,27.2L157.7,443.6z M205.2,401.4
		c4.8-12.5,12.4-32.2,18.1-47l30.9-2c-1.4,3-2.8,6.1-4.1,9.1L205.2,401.4z M186.6,481.1l42.7-85.9L232,447L186.6,481.1z
		 M232.6,454.9l14.3,126.9l-65-88.9L232.6,454.9z M238.4,442.2l-2.8-53.6l39.7,26L238.4,442.2z M281.7,544.6l-42.2-94.9L278,421
		L281.7,544.6z M237.4,381.8l64.6-57.4L279.1,409L237.4,381.8z M181.6,503.9l55.4,75.7l-71.4-50.1L181.6,503.9z M314,633.7
		l-59.2-41.5L241,469.5L314,633.7z M284.8,413.6l22.7-83.9l25.2,140.6L284.8,413.6z M333.5,495.2l-13.6,135.2l-30.5-68.5
		L333.5,495.2z M366.3,436.4l-26.2,37.1l-24.6-137.3L366.3,436.4z M534.2,478.8L481.5,503l-34.7-101.3L534.2,478.8z M536.4,485.2
		l-2.7,28.8l-43-7.8L536.4,485.2z M525.6,519.4l-24.9,11.5l-13.5-18.4L525.6,519.4z"/>
	<path class="st0" d="M715.5,269.4v-31.7H882v31.7h-64.5v177H780v-177H715.5z"/>
	<path class="st0" d="M887.1,446.4V289.9h35.8V316h1.6c2.9-9,7.8-16,14.7-20.9c7-4.9,15.3-7.5,23.9-7.4c2,0,4.3,0.1,6.9,0.2
		c2.1,0.1,4.3,0.4,6.4,0.8v33.9c-2.4-0.7-4.9-1.2-7.4-1.5c-3.2-0.4-6.5-0.7-9.7-0.7c-6.3-0.1-12.5,1.4-18.1,4.3
		c-5.2,2.8-9.6,6.9-12.6,12c-3.1,5.3-4.7,11.4-4.6,17.6v92H887.1z"/>
	<path class="st0" d="M1101.1,380.6v-90.7h36.9v156.5h-35.8v-27.8h-1.6c-3.5,8.7-9.6,16.2-17.4,21.5c-8.1,5.6-18,8.4-29.7,8.4
		c-10.3,0-19.3-2.3-27.2-6.9c-8-4.7-14.4-11.7-18.4-20.1c-4.4-8.8-6.6-19.4-6.6-31.9v-99.6h36.9v93.9c0,9.9,2.7,17.8,8.2,23.6
		s12.6,8.8,21.4,8.8c5.5,0,10.9-1.4,15.8-4c5.2-2.7,9.5-6.9,12.6-11.9C1099.5,395.1,1101.1,388.5,1101.1,380.6z"/>
	<path class="st0" d="M1292.4,331.3l-33.6,3.7c-1-3.5-2.7-6.7-4.9-9.6c-2.5-3.1-5.8-5.6-9.4-7.2c-4.6-2-9.5-2.9-14.5-2.8
		c-7.7,0-14.1,1.7-19.3,5s-7.8,7.6-7.7,12.9c-0.2,4.3,1.7,8.4,5,11.1c3.4,2.8,9.1,5.2,17.1,7l26.7,5.7c14.8,3.2,25.8,8.3,33.1,15.2
		c7.2,6.9,10.9,16,11,27.2c0.1,9.4-2.9,18.5-8.6,26c-5.7,7.5-13.5,13.4-23.6,17.6c-10,4.2-21.6,6.3-34.7,6.3
		c-19.2,0-34.6-4-46.2-12.1c-11.7-8.1-18.6-19.3-20.9-33.7l36-3.5c1.6,7.1,5.1,12.4,10.4,16c5.3,3.6,12.2,5.4,20.7,5.4
		c8.8,0,15.8-1.8,21.2-5.4c5.3-3.6,8-8.1,8-13.3c0.1-4.3-1.8-8.4-5.2-11.1c-3.4-2.9-8.7-5.2-15.9-6.7l-26.7-5.6
		c-15-3.1-26.1-8.4-33.3-15.8c-7.2-7.4-10.8-16.9-10.7-28.3c-0.1-9.6,2.6-18,7.9-25.1s12.8-12.6,22.3-16.5
		c9.6-3.9,20.6-5.9,33.1-5.9c18.3,0,32.8,3.9,43.3,11.7S1289.9,318,1292.4,331.3z"/>
	<path class="st0" d="M1401.5,289.9v28.5h-90v-28.5H1401.5z M1333.7,252.4h36.9v146.9c0,5,0.8,8.7,2.3,11.4c1.3,2.4,3.5,4.3,6.1,5.4
		c2.7,1,5.5,1.5,8.3,1.4c2.1,0,4.3-0.2,6.4-0.5c1.9-0.3,3.4-0.6,4.4-0.9l6.2,28.8c-2.8,0.9-5.6,1.7-8.4,2.2
		c-4.4,0.9-8.8,1.4-13.3,1.4c-8.5,0.4-17.1-1-25-4.2c-7.2-2.9-13.3-7.9-17.6-14.4c-4.3-6.5-6.4-14.7-6.4-24.5L1333.7,252.4z"/>
	<path class="st0" d="M1467.1,237.8v208.7h-36.9V237.8H1467.1z"/>
	<path class="st0" d="M1523.9,267.7c-5.6,0.1-11-2-15-5.9c-4-3.6-6.3-8.8-6.3-14.2c0-5.4,2.3-10.5,6.3-14.1c4.1-3.9,9.5-6,15.1-5.9
		c5.6-0.1,11,2,15,5.9c7.8,7.1,8.4,19.2,1.3,27c-0.4,0.5-0.8,0.9-1.3,1.3C1535,265.7,1529.5,267.8,1523.9,267.7z M1505.5,446.4
		V289.9h36.9v156.5L1505.5,446.4z"/>
	<path class="st0" d="M1617.6,354.7v91.7h-36.9V289.9h35.3v26.6h1.8c3.5-8.6,9.5-15.9,17.3-20.9c7.9-5.2,17.7-7.7,29.4-7.7
		c10.8,0,20.2,2.3,28.3,6.9c8.1,4.7,14.6,11.7,18.7,20.1c4.4,8.8,6.6,19.4,6.6,31.9v99.7h-36.9v-93.9c0-10.5-2.7-18.7-8.1-24.6
		c-5.4-5.9-12.9-8.9-22.4-8.9c-6-0.1-11.9,1.3-17.2,4.2c-5,2.8-9.1,7.1-11.7,12.2C1619,340.8,1617.6,347.2,1617.6,354.7z"/>
	<path class="st0" d="M1824.6,449.5c-15.7,0-29.2-3.3-40.6-9.8c-11.3-6.5-20.5-16.2-26.2-27.9c-6.1-12.1-9.2-26.3-9.2-42.6
		c0-16.1,3.1-30.2,9.2-42.4c5.7-11.8,14.7-21.6,25.8-28.5c11.1-6.8,24.1-10.2,39-10.2c9.3-0.1,18.6,1.5,27.4,4.6
		c8.6,3.1,16.3,8,22.8,14.3c7,7,12.3,15.4,15.6,24.6c3.8,10,5.7,21.8,5.7,35.5v11.3h-128.3v-24.9h92.9c0-6.6-1.5-13.1-4.6-18.9
		c-2.9-5.4-7.2-9.9-12.5-13.1c-5.6-3.3-12.1-4.9-18.6-4.8c-7-0.1-13.9,1.7-19.9,5.5c-5.6,3.5-10.2,8.4-13.3,14.3
		c-3.2,5.9-4.8,12.6-4.8,19.3v21.7c0,9.1,1.7,16.9,5,23.4c3.1,6.2,7.9,11.4,13.9,14.9c6.4,3.5,13.7,5.3,21,5.1
		c5,0.1,9.9-0.7,14.6-2.3c4.2-1.4,8-3.8,11.3-6.8c3.3-3.1,5.7-6.9,7.2-11.1l34.4,3.9c-2,8.8-6.3,17-12.4,23.8
		c-6.4,7-14.4,12.4-23.3,15.7C1847.6,447.6,1836.8,449.5,1824.6,449.5z"/>
	<path class="st0" d="M2041.9,331.3l-33.6,3.7c-1-3.5-2.7-6.7-4.9-9.6c-2.5-3.1-5.8-5.6-9.4-7.2c-4.6-2-9.5-2.9-14.5-2.8
		c-7.7,0-14.1,1.7-19.3,5c-5.2,3.3-7.7,7.6-7.7,12.9c-0.2,4.3,1.7,8.4,5,11.1c3.4,2.8,9.1,5.2,17.1,7l26.7,5.7
		c14.8,3.2,25.8,8.3,33.1,15.2c7.2,6.9,10.9,16,11,27.2c0.1,9.4-2.9,18.5-8.6,26c-5.7,7.5-13.5,13.4-23.6,17.6
		c-10,4.2-21.6,6.3-34.7,6.3c-19.2,0-34.6-4-46.2-12.1c-11.7-8.1-18.6-19.3-20.9-33.7l36-3.5c1.6,7.1,5.1,12.4,10.4,16
		c5.3,3.6,12.2,5.4,20.7,5.4c8.8,0,15.8-1.8,21.1-5.4c5.3-3.6,8-8.1,8-13.3c0.1-4.3-1.8-8.4-5.2-11.1c-3.4-2.9-8.7-5.2-15.9-6.7
		l-26.7-5.6c-15-3.1-26.1-8.4-33.3-15.8s-10.8-16.9-10.7-28.3c-0.1-9.6,2.6-18,7.9-25.1s12.8-12.6,22.3-16.5
		c9.6-3.9,20.6-5.9,33.1-5.9c18.3,0,32.8,3.9,43.4,11.7S2039.4,318,2041.9,331.3z"/>
	<path class="st0" d="M833.8,551.5v79.4h-11l-40.4-58.2h-0.7v58.2h-12v-79.4h11.1l40.4,58.3h0.7v-58.3H833.8z"/>
	<path class="st0" d="M860.5,630.9v-79.4h49.8v10.3h-37.8V586h35.2v10.3h-35.2v24.3h38.3v10.3H860.5z"/>
	<path class="st0" d="M931.1,561.8v-10.3h61.5v10.3h-24.8v69.1h-11.9v-69.1H931.1z"/>
	<path class="st0" d="M1032.9,630.9l-22-79.4h12.6l15.5,61.5h0.7l16.1-61.5h12.5l16.1,61.5h0.7l15.4-61.5h12.6l-22.1,79.4H1079
		l-16.7-59.5h-0.6l-16.7,59.5H1032.9z"/>
	<path class="st0" d="M1200.3,591.2c0,8.5-1.6,15.8-4.7,21.8c-2.8,5.8-7.3,10.6-12.7,14c-11.4,6.5-25.4,6.5-36.8,0
		c-5.5-3.4-9.9-8.3-12.7-14.1c-3.1-6.1-4.7-13.4-4.7-21.8s1.6-15.7,4.7-21.8c2.8-5.8,7.3-10.6,12.7-14c11.4-6.5,25.4-6.5,36.8,0
		c5.5,3.4,9.9,8.2,12.7,14C1198.8,575.5,1200.3,582.8,1200.3,591.2z M1188.5,591.2c0-6.5-1-11.9-3.1-16.3c-1.8-4.1-4.8-7.6-8.5-10.1
		c-7.5-4.6-17-4.6-24.5,0c-3.7,2.5-6.7,6-8.5,10.1c-2.1,4.4-3.1,9.9-3.1,16.3s1,11.9,3.1,16.3c1.8,4.1,4.8,7.6,8.5,10.1
		c7.5,4.6,17,4.6,24.5,0c3.8-2.5,6.7-6,8.5-10.1C1187.4,603.1,1188.5,597.7,1188.5,591.2z"/>
	<path class="st0" d="M1224.3,630.9v-79.4h28.3c6.2,0,11.3,1.1,15.3,3.2c3.9,1.9,7.1,5,9.1,8.8c2.1,4,3.1,8.4,3,12.9
		c0.1,4.5-0.9,8.9-3,12.8c-2.1,3.7-5.3,6.7-9.2,8.6c-4.1,2-9.2,3.1-15.3,3.1h-21.4v-10.3h20.4c3.2,0.1,6.5-0.5,9.5-1.7
		c2.3-1,4.2-2.7,5.4-4.8c1.2-2.4,1.8-5,1.7-7.6c0.1-2.7-0.5-5.4-1.7-7.8c-1.2-2.2-3.1-4-5.4-5c-3-1.3-6.3-1.9-9.6-1.8h-15V631
		L1224.3,630.9z M1263.5,595.1l19.6,35.8h-13.6l-19.2-35.8H1263.5z"/>
	<path class="st0" d="M1304.1,630.9v-79.4h12v37.9h1l33.3-37.9h15.1l-32,35.8l32.2,43.7h-14.5l-25.7-35.5l-9.4,10.8v24.7H1304.1z"/>
</g>
<path class="st1" d="M505.6,274.4c53.7,45,87.3,113,85.9,188.5C589.1,595.6,479.6,701.2,347,698.8S108.7,587,111.1,454.3
	S222.9,216,355.6,218.4c23.7,0.4,46.6,4.3,68.1,11.1"/>
</svg>
