<svg width="269" height="38" viewBox="0 0 269 38" fill="none" xmlns="http://www.w3.org/2000/svg">
<path d="M36.4655 19.1417V19.1296C36.4655 18.9829 36.4562 18.8369 36.449 18.6945V18.6709C36.4418 18.5335 36.4333 18.3947 36.4218 18.2451V18.2165C36.4118 18.0855 36.3996 17.9489 36.3853 17.8008L36.3817 17.765C36.3674 17.629 36.3519 17.4933 36.3352 17.3578L36.3302 17.317C36.3123 17.1825 36.2937 17.0487 36.2744 16.9192L36.2672 16.8712C36.2472 16.7403 36.225 16.6101 36.2021 16.4805L36.1943 16.4312C36.1709 16.3024 36.147 16.1743 36.1227 16.0469L36.112 15.9925C36.0862 15.8659 36.0583 15.7399 36.0297 15.6147L36.0175 15.5603C35.9879 15.4344 35.9572 15.3089 35.9252 15.1839L35.9123 15.1346C35.8804 15.0101 35.8467 14.8858 35.8114 14.7618L35.7964 14.7088C35.7613 14.5857 35.7248 14.4627 35.6869 14.341L35.6712 14.2895C35.6297 14.1571 35.591 14.0383 35.5531 13.9267L35.5345 13.8716C35.4944 13.7528 35.4522 13.6333 35.4093 13.5138L35.39 13.4623C35.3465 13.343 35.3015 13.2238 35.2547 13.1045L35.2354 13.0573C35.1875 12.9364 35.1388 12.8176 35.0923 12.7052L35.0708 12.6537C35.0231 12.5373 34.9721 12.4209 34.9177 12.3045L34.8984 12.2616C34.8454 12.1442 34.791 12.0283 34.7352 11.9124L34.7159 11.8723C34.6594 11.7557 34.6021 11.6398 34.5427 11.5253L34.5241 11.4888C34.465 11.3733 34.4046 11.2586 34.3431 11.1446L34.3216 11.1067C34.2601 10.9931 34.1969 10.8798 34.132 10.7668L34.1148 10.7367C34.049 10.6227 33.982 10.5094 33.9138 10.3968L33.8973 10.3696C33.8272 10.2551 33.7556 10.1418 33.6826 10.0297L33.6748 10.0169C33.6032 9.90165 33.5245 9.78644 33.4479 9.67267L33.4329 9.66193C33.3492 9.53886 33.2733 9.42938 33.2018 9.3292L33.1968 9.32204C33.1956 9.31957 33.1938 9.31738 33.1918 9.3156C33.113 9.20469 33.0336 9.09592 32.9528 8.98716L32.9413 8.97213C32.8616 8.86623 32.7813 8.76128 32.7002 8.65728L32.6787 8.62938C32.5964 8.52562 32.5134 8.42186 32.429 8.31954L32.4125 8.2995C32.3295 8.19861 32.2443 8.09914 32.1592 8.0004L32.1341 7.97034C32.0507 7.87493 31.9662 7.77952 31.8808 7.68412L31.8486 7.64762C31.7635 7.5546 31.6783 7.46301 31.591 7.37141L31.5567 7.33564C31.4708 7.24548 31.384 7.15651 31.2962 7.06873L31.2562 7.02795C31.1624 6.93421 31.0672 6.84118 30.9699 6.74888C30.9684 6.74703 30.9668 6.74535 30.9649 6.74387C30.7409 6.5292 30.4998 6.31453 30.2494 6.09986C30.2395 6.09175 30.2277 6.08642 30.2151 6.08441C30.2026 6.08239 30.1897 6.08378 30.1778 6.08841C30.1664 6.09344 30.1565 6.10137 30.1491 6.11142C30.1417 6.12146 30.137 6.13326 30.1356 6.14565C30.0848 6.65943 30.2179 6.78465 30.5098 7.05871L30.585 7.13027C33.5873 9.99495 35.4492 13.8511 35.8255 17.9837C36.2018 22.1164 35.0669 26.2454 32.6312 29.6052C30.1955 32.965 26.6243 35.3277 22.5796 36.2554C18.5348 37.1831 14.2909 36.6128 10.6345 34.6502C6.97812 32.6877 4.15732 29.466 2.69502 25.5824C1.23272 21.6988 1.22809 17.4167 2.68201 13.5299C4.13592 9.64318 6.94976 6.4154 10.6019 4.44495C14.254 2.4745 18.4967 1.89504 22.5435 2.81399C23.0401 2.92634 23.2891 2.98286 23.7406 2.68662C23.752 2.67885 23.7608 2.66796 23.7662 2.65527C23.7715 2.64258 23.7731 2.62862 23.7706 2.61507C23.7683 2.60234 23.7625 2.59049 23.7539 2.58079C23.7454 2.57109 23.7343 2.56389 23.722 2.55997C23.3871 2.46193 23.0558 2.37464 22.7381 2.30093H22.7266C22.5935 2.27016 22.4569 2.24083 22.308 2.21006H22.293C22.1685 2.1843 22.0304 2.15782 21.873 2.1292H21.8594C21.7163 2.10415 21.5732 2.07982 21.4343 2.05764H21.42C21.2833 2.03689 21.1381 2.01685 20.9907 1.99753H20.9814C20.8325 1.97893 20.6851 1.96247 20.5442 1.94816H20.5342C20.4054 1.93456 20.2644 1.92168 20.0891 1.90809C19.6397 1.87374 19.181 1.85657 18.7252 1.85657C18.5628 1.85657 18.4132 1.85657 18.2673 1.86229C18.1213 1.86802 17.9581 1.87231 17.8114 1.87947C17.6647 1.88662 17.5131 1.89664 17.3599 1.90809C17.2068 1.91954 17.0665 1.93242 16.9105 1.94816C16.7546 1.9639 16.6143 1.98036 16.4655 1.99896C16.3166 2.01757 16.1699 2.03832 16.0225 2.06122C15.8601 2.08626 15.7163 2.10988 15.5839 2.13277C15.4365 2.15925 15.2905 2.18716 15.1495 2.2165C15.0086 2.24583 14.8583 2.27803 14.7202 2.31023C14.5821 2.34243 14.434 2.3775 14.2909 2.41471C14.1478 2.45192 14.0046 2.48626 13.868 2.5292C13.7313 2.57213 13.5975 2.60791 13.4522 2.65227H13.4487C13.3198 2.69235 13.1839 2.73599 13.0343 2.7868C12.8848 2.8376 12.7567 2.88269 12.6243 2.92991C12.4919 2.97714 12.361 3.02866 12.2193 3.08376C12.0776 3.13886 11.946 3.19396 11.8186 3.24762H11.8143C11.6841 3.30201 11.5524 3.35997 11.4229 3.41864C11.2934 3.47732 11.1581 3.54029 11.0329 3.60111C10.9077 3.66193 10.7703 3.7292 10.6479 3.79217C10.4004 3.91882 10.147 4.05693 9.89302 4.20218C9.77423 4.27374 9.65116 4.3453 9.52736 4.41685C9.40286 4.49199 9.28193 4.56784 9.16958 4.64083C8.571 5.02541 7.99565 5.44498 7.44651 5.89736C7.32915 5.99467 7.22254 6.08483 7.12093 6.17285C7.01932 6.26086 6.90626 6.35818 6.8025 6.45478C6.38533 6.83474 5.98032 7.2419 5.59892 7.65907C5.5059 7.76068 5.41145 7.86802 5.31628 7.9775C5.23041 8.07624 5.14096 8.18215 5.04365 8.2995C4.59083 8.8483 4.17124 9.42369 3.78712 10.0226C3.70912 10.1435 3.63327 10.2659 3.561 10.3854C3.48944 10.5099 3.41288 10.633 3.34633 10.751C3.20322 11 3.06512 11.2519 2.93703 11.5052C2.86977 11.6362 2.80537 11.7657 2.74526 11.8909C2.68515 12.0161 2.6229 12.1478 2.56279 12.2809C2.50268 12.414 2.44615 12.5428 2.39177 12.6716V12.6766C2.33166 12.8197 2.278 12.9499 2.22791 13.0766C2.17782 13.2033 2.12343 13.3471 2.07406 13.4823C2.02469 13.6176 1.97531 13.7564 1.93095 13.8923C1.88658 14.0283 1.83721 14.175 1.79642 14.3067C1.75206 14.4498 1.70984 14.5929 1.67191 14.726C1.63399 14.8591 1.60036 14.9972 1.55742 15.1489C1.51449 15.3006 1.48587 15.4351 1.45295 15.5782C1.42004 15.7213 1.38783 15.8687 1.35921 16.0076C1.33059 16.1464 1.30268 16.2938 1.27549 16.4426C1.2483 16.5915 1.22612 16.7288 1.20394 16.8813C1.18318 17.0194 1.16315 17.1632 1.1424 17.3213C1.12451 17.4644 1.10733 17.614 1.09159 17.7671C1.07585 17.9203 1.06369 18.0648 1.05152 18.2165C1.03936 18.3682 1.03005 18.5249 1.02361 18.668C1.01717 18.8111 1.01002 18.9707 1.00572 19.1231C1.00143 19.2755 1 19.4179 1 19.5811C1 19.7442 1 19.8938 1.00572 20.039C1.01145 20.1843 1.01574 20.3446 1.02361 20.4941C1.03148 20.6437 1.03936 20.7868 1.05152 20.9464C1.06369 21.1059 1.07657 21.2469 1.09159 21.395C1.10662 21.5431 1.12451 21.6984 1.1424 21.8408C1.16315 21.9975 1.18318 22.1414 1.20394 22.2809C1.22755 22.4376 1.25188 22.5807 1.27549 22.7195C1.29911 22.8584 1.33059 23.0143 1.3585 23.1525C1.38712 23.2906 1.4186 23.4387 1.45224 23.5818C1.48372 23.7185 1.51807 23.858 1.55671 24.0111C1.59535 24.1643 1.63399 24.3024 1.6712 24.434C1.70841 24.5657 1.75134 24.7088 1.79571 24.8526C1.83649 24.9843 1.88086 25.1195 1.93023 25.2669C1.97603 25.4029 2.02469 25.541 2.07334 25.677C2.122 25.8129 2.17495 25.9496 2.22719 26.0827C2.32952 26.3424 2.44186 26.6086 2.56279 26.8741C2.56248 26.8755 2.56248 26.877 2.56279 26.8784C2.67943 27.136 2.80465 27.3957 2.93488 27.6505V27.6548C3.12808 28.0326 3.33846 28.409 3.56028 28.7739V28.7775C3.63184 28.8984 3.70984 29.0201 3.7864 29.1403C4.24465 29.8627 4.75425 30.5511 5.31127 31.2004C5.40286 31.3056 5.4966 31.4151 5.59034 31.5152L5.59391 31.5195C6.07146 32.0443 6.57969 32.5404 7.11592 33.005C7.22039 33.0959 7.33059 33.1882 7.4415 33.2805C7.9903 33.7334 8.56568 34.1529 9.16458 34.5371C9.3957 34.6859 9.63899 34.834 9.88801 34.9771H9.89302C10.1499 35.1203 10.4032 35.2634 10.6472 35.3864C10.7732 35.4508 10.9012 35.5145 11.0272 35.5746H11.0329C11.1603 35.6362 11.2912 35.697 11.4229 35.7564C11.5374 35.8086 11.6597 35.8623 11.8186 35.9303C11.9617 35.9897 12.0905 36.0433 12.2193 36.0934C12.3481 36.1435 12.4748 36.1922 12.6243 36.248C12.7631 36.2981 12.9012 36.3467 13.0343 36.3911C13.1674 36.4355 13.3113 36.4834 13.4487 36.5256H13.4522C13.5996 36.5714 13.7385 36.6115 13.868 36.6487C13.9975 36.6859 14.1542 36.7281 14.2909 36.7639C14.4275 36.7997 14.5821 36.8355 14.7202 36.8677C14.8583 36.8999 15.0021 36.9313 15.1495 36.9621C15.2819 36.9893 15.4243 37.0165 15.5853 37.0451C15.7284 37.0709 15.8787 37.0959 16.024 37.1167C16.1692 37.1374 16.3102 37.1582 16.4662 37.1782C16.6222 37.1982 16.7746 37.2154 16.9113 37.229C17.0651 37.2448 17.2161 37.2584 17.3606 37.2691C17.5216 37.2813 17.669 37.2906 17.8122 37.2977C17.9553 37.3049 18.1148 37.3113 18.268 37.3149C18.4211 37.3185 18.5685 37.3206 18.7259 37.3206C18.8834 37.3206 19.0358 37.3206 19.1832 37.3149C19.3306 37.3092 19.4902 37.3056 19.6383 37.2977C19.7864 37.2898 19.9295 37.2813 20.0905 37.2691C20.2336 37.2584 20.3853 37.2448 20.5392 37.229C20.6758 37.2154 20.8218 37.199 20.985 37.1782C21.1481 37.1575 21.2869 37.1374 21.425 37.1167C21.5717 37.0938 21.7191 37.0695 21.8637 37.0451C22.0247 37.0165 22.1664 36.9893 22.2987 36.9621C22.4655 36.9278 22.6021 36.8977 22.7281 36.8677C22.854 36.8376 23.0057 36.8025 23.1574 36.7639C23.2955 36.7281 23.4372 36.6923 23.5803 36.6487C23.7113 36.6122 23.8479 36.5714 23.9996 36.5242C24.1356 36.482 24.2751 36.4369 24.4139 36.3897C24.5528 36.3424 24.6837 36.2966 24.824 36.2466C24.9642 36.1965 25.1052 36.1414 25.229 36.0927C25.3528 36.044 25.488 35.9889 25.6297 35.9288C25.7885 35.8616 25.9102 35.8079 26.0247 35.7557C26.2844 35.6383 26.5456 35.5124 26.8003 35.3822C27.3077 35.1224 27.8071 34.8347 28.2866 34.5278C28.4011 34.4562 28.5213 34.3754 28.6443 34.2931C29.2322 33.8955 29.7959 33.4632 30.3324 32.9986C30.4361 32.9084 30.547 32.814 30.6508 32.7167V32.7124C30.7488 32.6237 30.849 32.5299 30.9585 32.4262C31.068 32.3224 31.1638 32.2279 31.2633 32.1285C31.3735 32.0183 31.4708 31.9181 31.5603 31.8244C31.7563 31.619 31.9488 31.4072 32.1327 31.194C32.2257 31.0866 32.3188 30.9793 32.4075 30.8691C32.8601 30.3201 33.2797 29.7448 33.664 29.146C33.9717 28.6666 34.2587 28.1671 34.5184 27.6605V27.6562C34.6501 27.3986 34.7753 27.1389 34.8905 26.8841C35.0086 26.6215 35.1216 26.3553 35.2254 26.092C35.2776 25.9603 35.3291 25.8237 35.3799 25.6863C35.4308 25.5489 35.4773 25.4144 35.5231 25.2762C35.5689 25.1381 35.6161 24.9965 35.6583 24.8619C35.7005 24.7274 35.7442 24.5757 35.7828 24.4433C35.8214 24.311 35.8608 24.1614 35.8966 24.0204C35.9324 23.8795 35.9681 23.7464 36.0018 23.5911C36.0354 23.4358 36.0669 23.2999 36.0955 23.1618C36.1241 23.0229 36.152 22.8755 36.1792 22.7288C36.2064 22.5821 36.23 22.4312 36.2508 22.2902C36.2715 22.1542 36.2923 22.0097 36.3123 21.8501C36.3309 21.707 36.3474 21.5639 36.3638 21.4043C36.3803 21.2448 36.3925 21.0988 36.4032 20.9557C36.4139 20.8126 36.4247 20.6516 36.4318 20.5034C36.439 20.3553 36.4454 20.2043 36.4497 20.0483C36.454 19.8923 36.4554 19.7464 36.4554 19.5904C36.4554 19.4344 36.469 19.287 36.4655 19.1417Z" fill="#12121F"/>
<path d="M32.5492 21.0308C32.5499 21.0191 32.5499 21.0074 32.5492 20.9957C32.5492 20.99 32.5492 20.9835 32.5492 20.9771C32.5467 20.9647 32.5433 20.9525 32.5392 20.9406C32.5392 20.9356 32.5392 20.9306 32.5349 20.927V20.9191C32.5313 20.9114 32.527 20.9039 32.522 20.897L32.5177 20.8898L32.512 20.8798C32.5021 20.8662 32.4909 20.8538 32.4784 20.8426L23.0508 12.5306L30.4075 0.995694C30.4377 0.947207 30.4497 0.889555 30.4412 0.833064C30.4328 0.776572 30.4045 0.724932 30.3615 0.687393C30.3184 0.649853 30.2634 0.628866 30.2063 0.628191C30.1492 0.627515 30.0937 0.647196 30.0498 0.683708L19.8372 9.47227L18.8562 5.98961C18.8466 5.95547 18.8297 5.92386 18.8065 5.89705C18.7833 5.87023 18.7544 5.84888 18.722 5.83452C18.6896 5.82016 18.6544 5.81315 18.619 5.81398C18.5835 5.81481 18.5487 5.82348 18.517 5.83935L16.4268 6.88121H16.4218L16.4125 6.88693L16.4004 6.8948C16.3947 6.8978 16.3895 6.9014 16.3846 6.90554L16.3775 6.91126C16.3729 6.91477 16.3686 6.9186 16.3646 6.92271L16.3589 6.92843L16.3496 6.93845C16.3462 6.94191 16.3434 6.94575 16.341 6.9499L16.3288 6.96636C16.3263 6.96947 16.3242 6.97282 16.3224 6.97638C16.3192 6.98158 16.3166 6.9871 16.3145 6.99284V6.99713L16.3095 7.00715L15.5367 8.95133L13.2705 9.08944C13.2266 9.09257 13.1844 9.10753 13.1484 9.13273C13.1124 9.15793 13.0838 9.19243 13.0658 9.23255C13.0172 9.33846 12.575 10.293 12.0641 11.4143L9.44151 11.5832C9.3957 11.5861 9.35168 11.6021 9.31465 11.6292C9.27762 11.6563 9.24914 11.6935 9.23256 11.7363C9.20251 11.815 8.85976 12.7009 8.48981 13.6612L6.35743 13.8043C6.31193 13.8073 6.2682 13.823 6.23124 13.8497C6.19428 13.8764 6.1656 13.913 6.14848 13.9553C5.71342 15.0694 4.28372 18.736 4.15421 19.1646L4.14848 19.1868C4.14687 19.1924 4.14568 19.1981 4.1449 19.2039C4.1449 19.2132 4.1449 19.2225 4.1449 19.2347V19.2411C4.14392 19.2535 4.14392 19.266 4.1449 19.2784C4.14458 19.2812 4.14458 19.2841 4.1449 19.2869C4.14728 19.2983 4.15038 19.3096 4.15421 19.3206C4.15399 19.3244 4.15399 19.3282 4.15421 19.332C4.15778 19.3406 4.16208 19.3485 4.16637 19.3571C4.16896 19.3622 4.17183 19.3672 4.17496 19.3721V19.3764L4.18068 19.3857L6.32737 22.3281L4.95349 24.5127C4.92061 24.5649 4.90904 24.6277 4.92116 24.6881C4.93328 24.7486 4.96816 24.8021 5.01861 24.8376L7.63614 26.6751L6.70591 28.6966C6.69249 28.7263 6.6852 28.7584 6.68446 28.791C6.68372 28.8236 6.68956 28.856 6.70161 28.8862C6.71348 28.9164 6.73141 28.9439 6.7543 28.9669C6.7772 28.9899 6.80456 29.008 6.83471 29.02L16.5871 32.9557H16.5943C16.6041 32.9592 16.6141 32.962 16.6243 32.9642H16.6286C16.6429 32.9676 16.6576 32.9693 16.6723 32.9692H16.6887C16.7039 32.9692 16.719 32.9675 16.7338 32.9642C16.7423 32.9628 16.7507 32.9607 16.7589 32.9578L16.7696 32.9542C16.7753 32.9531 16.7809 32.9511 16.7861 32.9485H16.7925L16.8032 32.9421C16.8068 32.9412 16.8102 32.9398 16.8132 32.9378L16.8197 32.9328L16.829 32.9256C16.837 32.9202 16.8447 32.9142 16.8519 32.9077L16.8598 32.8998C16.8637 32.8961 16.8673 32.892 16.8705 32.8877L16.8755 32.8812C16.8792 32.8778 16.8826 32.8739 16.8855 32.8698V32.8655L16.8898 32.8598C16.892 32.8558 16.8939 32.8518 16.8955 32.8476C16.9008 32.8387 16.9053 32.8293 16.9091 32.8197V32.814C16.9091 32.814 16.9091 32.8068 16.9091 32.7997C16.9127 32.7882 16.9153 32.7765 16.917 32.7646V32.7589L18.0619 21.4687L27.8229 23.2361L29.2004 25.1181C29.2329 25.163 29.28 25.1952 29.3337 25.2091C29.3873 25.2231 29.4442 25.218 29.4945 25.1946L32.1514 23.9732C32.1557 23.9732 32.1585 23.9732 32.1578 23.9732C32.1722 23.966 32.1859 23.9573 32.1986 23.9474L32.2115 23.9367C32.223 23.9265 32.2336 23.9152 32.243 23.903L32.2494 23.8945C32.2602 23.8791 32.269 23.8625 32.2759 23.8451C32.2759 23.8451 32.2759 23.8386 32.2759 23.8351L32.2415 23.8265L32.2773 23.8308C32.2806 23.8212 32.2832 23.8114 32.2852 23.8014C32.2855 23.7979 32.2855 23.7943 32.2852 23.7907V23.7843L32.5492 21.0394C32.5494 21.0365 32.5494 21.0336 32.5492 21.0308ZM12.4276 11.7721C12.8927 10.7524 13.3098 9.8508 13.4429 9.56171L15.0215 9.46654L12.4276 11.7721ZM20.0726 9.90303L29.1245 2.1134L22.6845 12.2086L20.0726 9.90303ZM27.3127 21.8644L22.8047 16.4633L24.9685 15.0322L27.3127 21.8644ZM16.9564 7.15742L18.4705 6.40321L19.2576 9.18461L16.9564 7.15742ZM20.5771 17.9453L22.4047 16.7345L26.7596 21.9581L20.5771 17.9453ZM21.8759 13.7563L18.175 8.87334L24.7031 14.6308L22.5871 16.0304L21.9124 13.825C21.9092 13.8155 21.9054 13.8061 21.9009 13.7971V13.7914C21.8948 13.7793 21.8879 13.7676 21.8802 13.7563H21.8759ZM20.1664 14.0204L21.5009 14.1263L21.9667 15.6512L20.1664 14.0204ZM19.5009 13.4851C19.4509 13.4812 19.4009 13.493 19.3579 13.5189C19.3149 13.5448 19.2811 13.5835 19.2612 13.6296C19.2413 13.6756 19.2364 13.7268 19.247 13.7758C19.2577 13.8249 19.2834 13.8694 19.3206 13.903L22.0605 16.3853L20.2308 17.5939L15.9639 9.17244L16.5957 7.58675L21.1675 13.6175L19.5009 13.4851ZM26.8204 22.5649L18.263 21.015L20.2014 18.2708L26.8204 22.5649ZM17.5474 21.2018L14.3016 26.1134L14.0247 17.0258L17.5474 21.2018ZM14.8376 31.7263L7.25975 28.6709L8.04687 26.9585L14.8376 31.7263ZM4.70448 19.2805L9.47371 15.0415L6.29231 21.4515L4.70448 19.2805ZM4.93346 18.4333C5.33703 17.3692 6.04115 15.5546 6.54133 14.2744L8.29875 14.1549C7.88086 15.2433 7.6297 15.8973 7.55385 16.102L4.93346 18.4333ZM8.33024 15.4143C8.67371 14.517 9.21611 13.1109 9.62541 12.0512L11.8365 11.908C11.7385 12.1227 11.639 12.3417 11.5417 12.5585L8.33024 15.4143ZM6.99643 21.1145L10.0483 14.9656L10.2487 18.678L6.99643 21.1145ZM10.288 19.2462L11.312 28.3252L6.66083 21.9632L10.288 19.2462ZM10.7045 18.3331L10.5013 14.4991L13.342 16.3596L10.7045 18.3331ZM13.8079 25.6619L10.7896 18.8733L13.5403 16.8175L13.8079 25.6619ZM10.6351 14.0089L15.2576 9.89946L13.619 15.9589L10.6351 14.0089ZM6.64365 22.7481L10.6064 28.1657L5.4966 24.5778L6.64365 22.7481ZM16.1163 32.0361L11.883 29.0637L10.8927 20.2909L16.1163 32.0361ZM14.0297 16.2851L15.6526 10.2823L17.4544 20.3438L14.0297 16.2851ZM17.5124 22.1299L16.5399 31.8057L14.3589 26.9005L17.5124 22.1299ZM19.858 17.9231L17.9846 20.5764L16.2258 10.7531L19.858 17.9231ZM31.8737 20.9556L28.1041 22.6887L25.6204 15.4386L31.8737 20.9556ZM32.0312 21.4129L31.8365 23.4723L28.7596 22.9156L32.0312 21.4129ZM31.2562 23.8565L29.4723 24.6759L28.5099 23.3592L31.2562 23.8565Z" fill="#12121F"/>
<path d="M44.8461 5.97174V3.70483H56.7603V5.97174H52.1449V18.6372H49.4615V5.97174H44.8461Z" fill="#12121F"/>
<path d="M57.1274 18.6365V7.43788H59.6863V9.30407H59.8022C60.0069 8.65815 60.3584 8.15869 60.857 7.80568C61.3563 7.45277 61.955 7.26782 62.5664 7.27759C62.7096 7.27759 62.8734 7.28332 63.058 7.29476C63.211 7.30376 63.3632 7.32216 63.5138 7.34986V9.77777C63.3413 9.72618 63.1642 9.69096 62.985 9.67258C62.7542 9.64153 62.5217 9.62552 62.2888 9.62464C61.8383 9.61704 61.3932 9.72363 60.9951 9.93448C60.6221 10.133 60.3108 10.43 60.0949 10.7932C59.8714 11.1749 59.7575 11.611 59.7657 12.0533V18.6365H57.1274Z" fill="#12121F"/>
<path d="M72.4376 13.926V7.43799H75.0787V18.6365H72.5199V16.6459H72.4026C72.1512 17.2713 71.7183 17.8071 71.1596 18.1843C70.5834 18.5831 69.875 18.7823 69.0344 18.7818C68.3003 18.7818 67.6527 18.6179 67.0917 18.2902C66.5212 17.9515 66.0636 17.4516 65.7765 16.8534C65.4602 16.2241 65.3023 15.4623 65.3028 14.5679V7.43799H67.9418V14.16C67.9418 14.8689 68.1362 15.4325 68.525 15.8509C68.9137 16.2692 69.4242 16.4782 70.0562 16.4777C70.4506 16.4758 70.8385 16.3776 71.1861 16.1915C71.5576 15.9949 71.8688 15.7011 72.0863 15.3414C72.3205 14.9669 72.4376 14.4951 72.4376 13.926Z" fill="#12121F"/>
<path d="M86.1261 10.3974L83.7197 10.6636C83.6484 10.4141 83.5285 10.1811 83.3669 9.97812C83.1861 9.75466 82.9548 9.57734 82.6921 9.46076C82.3654 9.3205 82.0121 9.2531 81.6567 9.26327C81.1072 9.26327 80.6466 9.38253 80.2749 9.62105C79.9033 9.85957 79.7199 10.168 79.7247 10.5463C79.7179 10.6977 79.7467 10.8485 79.8089 10.9867C79.871 11.1249 79.9647 11.2466 80.0825 11.342C80.3281 11.5457 80.7353 11.7126 81.3039 11.8429L83.2145 12.2515C84.2735 12.48 85.0621 12.8423 85.5801 13.3384C86.0982 13.8345 86.3606 14.4833 86.3672 15.2847C86.373 15.9559 86.1563 16.6101 85.7511 17.1452C85.3452 17.6819 84.7827 18.101 84.0638 18.4025C83.3449 18.7039 82.5185 18.8549 81.5844 18.8554C80.2139 18.8554 79.1107 18.5673 78.275 17.991C77.4392 17.4147 76.9409 16.6116 76.7802 15.5817L79.3562 15.3334C79.4726 15.8395 79.7204 16.2212 80.0996 16.4783C80.4789 16.7354 80.9724 16.8645 81.5801 16.8654C82.2074 16.8654 82.7119 16.7364 83.0935 16.4783C83.4752 16.2202 83.666 15.902 83.666 15.5237C83.6688 15.372 83.6371 15.2215 83.5733 15.0838C83.5094 14.9461 83.4151 14.8247 83.2975 14.7287C83.0528 14.5198 82.6726 14.3593 82.1569 14.2472L80.247 13.8465C79.1723 13.6237 78.3775 13.2459 77.8628 12.713C77.3481 12.1801 77.0928 11.5058 77.0971 10.6901C77.0919 10.0003 77.2803 9.40113 77.6624 8.8926C78.0445 8.38408 78.5764 7.99028 79.2581 7.71121C79.9417 7.43214 80.7305 7.2926 81.6245 7.2926C82.9368 7.2926 83.9708 7.57191 84.7265 8.13053C85.4821 8.68915 85.9486 9.44478 86.1261 10.3974Z" fill="#12121F"/>
<path d="M93.9329 7.43777V9.47856H87.4929V7.43777H93.9329ZM89.085 4.75513H91.7233V15.2675C91.7233 15.6224 91.7781 15.8933 91.8878 16.0803C91.9829 16.2554 92.1367 16.3912 92.3222 16.4639C92.5135 16.5338 92.716 16.5682 92.9197 16.5655C93.0724 16.5665 93.2249 16.5543 93.3755 16.529C93.5143 16.5047 93.6195 16.4832 93.6925 16.4639L94.1369 18.5261C93.9395 18.5905 93.7389 18.6442 93.5358 18.6871C93.2225 18.7515 92.9039 18.7858 92.5841 18.7895C91.9729 18.8182 91.3627 18.7147 90.7952 18.4861C90.281 18.2779 89.8422 17.9183 89.5372 17.4549C89.2281 16.9884 89.0764 16.405 89.0821 15.7047L89.085 4.75513Z" fill="#12121F"/>
<path d="M98.6291 3.70483V18.6365H95.9901V3.70483H98.6291Z" fill="#12121F"/>
<path d="M102.694 5.84883C102.294 5.85492 101.908 5.70263 101.621 5.42522C101.478 5.29787 101.365 5.14163 101.287 4.96691C101.21 4.79219 101.171 4.60301 101.173 4.41198C101.171 4.22112 101.21 4.03213 101.288 3.85789C101.366 3.68365 101.481 3.52826 101.624 3.40232C101.915 3.1268 102.303 2.97627 102.703 2.983C103.103 2.97665 103.489 3.12869 103.777 3.4059C103.918 3.53394 104.03 3.69007 104.107 3.86426C104.185 4.03845 104.224 4.22685 104.224 4.41735C104.224 4.60785 104.185 4.79625 104.107 4.97044C104.03 5.14463 103.918 5.30076 103.777 5.4288C103.485 5.70612 103.096 5.8571 102.694 5.84883ZM101.374 18.6367V7.4381H104.013V18.6367H101.374Z" fill="#12121F"/>
<path d="M109.397 12.0748V18.6365H106.758V7.43797H109.283V9.33993H109.414C109.661 8.72574 110.093 8.20358 110.65 7.84584C111.216 7.47661 111.917 7.29199 112.753 7.29199C113.526 7.29199 114.2 7.45729 114.776 7.78788C115.357 8.12209 115.824 8.62224 116.117 9.22401C116.435 9.85084 116.592 10.6112 116.587 11.5052V18.6365H113.948V11.9145C113.948 11.1651 113.755 10.5793 113.369 10.1571C112.982 9.73492 112.449 9.52359 111.769 9.52311C111.34 9.51494 110.916 9.61904 110.54 9.82508C110.182 10.0278 109.89 10.3307 109.702 10.6966C109.499 11.0759 109.397 11.5353 109.397 12.0748Z" fill="#12121F"/>
<path d="M124.21 18.8555C123.087 18.8555 122.119 18.6208 121.304 18.1514C120.494 17.6864 119.84 16.9913 119.426 16.1542C118.989 15.2913 118.771 14.274 118.771 13.1023C118.771 11.9503 118.991 10.938 119.431 10.0655C119.842 9.22463 120.483 8.51717 121.279 8.02471C122.071 7.53575 123.002 7.2915 124.07 7.29198C124.737 7.28789 125.399 7.4 126.027 7.62328C126.639 7.84311 127.196 8.19266 127.66 8.64797C128.158 9.14598 128.54 9.74713 128.779 10.409C129.052 11.1212 129.188 11.9679 129.188 12.9492V13.7585H120.01V11.9796H126.659C126.663 11.5088 126.55 11.0443 126.332 10.6272C126.124 10.2396 125.816 9.91582 125.439 9.69054C125.035 9.45634 124.574 9.33776 124.108 9.34779C123.606 9.33733 123.112 9.47282 122.686 9.73777C122.286 9.98933 121.958 10.341 121.735 10.7582C121.508 11.1833 121.389 11.6579 121.388 12.1399V13.6934C121.388 14.3446 121.508 14.9022 121.746 15.3664C121.967 15.8119 122.314 16.1821 122.744 16.4304C123.204 16.6836 123.722 16.8105 124.247 16.7982C124.601 16.8032 124.954 16.7481 125.29 16.6351C125.59 16.5317 125.866 16.3664 126.098 16.1499C126.332 15.9297 126.509 15.6573 126.616 15.3549L129.081 15.6326C128.934 16.2657 128.63 16.8512 128.195 17.3342C127.736 17.8348 127.164 18.2195 126.528 18.4569C125.852 18.7226 125.08 18.8555 124.21 18.8555Z" fill="#12121F"/>
<path d="M139.758 10.3974L137.352 10.6636C137.28 10.4141 137.16 10.1811 136.998 9.97812C136.818 9.75466 136.586 9.57734 136.324 9.46076C135.997 9.32051 135.644 9.25312 135.289 9.26327C134.738 9.26327 134.278 9.38253 133.907 9.62105C133.536 9.85957 133.353 10.168 133.356 10.5463C133.349 10.6976 133.378 10.8485 133.44 10.9867C133.503 11.1249 133.596 11.2466 133.714 11.342C133.959 11.5457 134.366 11.7126 134.935 11.8429L136.845 12.2515C137.905 12.48 138.693 12.8423 139.211 13.3384C139.729 13.8345 139.991 14.4833 139.998 15.2847C140.004 15.956 139.787 16.6103 139.382 17.1452C138.976 17.6819 138.414 18.101 137.695 18.4025C136.976 18.7039 136.149 18.8549 135.215 18.8554C133.845 18.8554 132.741 18.5673 131.906 17.991C131.07 17.4147 130.572 16.6116 130.412 15.5817L132.988 15.3334C133.104 15.8395 133.352 16.2212 133.731 16.4783C134.11 16.7354 134.604 16.8645 135.212 16.8654C135.838 16.8654 136.343 16.7364 136.724 16.4783C137.106 16.2202 137.297 15.902 137.297 15.5237C137.3 15.372 137.268 15.2215 137.204 15.0838C137.14 14.9461 137.046 14.8247 136.928 14.7287C136.683 14.5198 136.303 14.3593 135.788 14.2472L133.877 13.8465C132.802 13.6237 132.008 13.2459 131.493 12.713C130.978 12.1801 130.723 11.5058 130.727 10.6901C130.723 10.0003 130.911 9.40113 131.292 8.8926C131.674 8.38408 132.206 7.99028 132.889 7.71121C133.573 7.43214 134.361 7.2926 135.255 7.2926C136.567 7.2926 137.601 7.57191 138.357 8.13053C139.113 8.68915 139.58 9.44478 139.758 10.3974Z" fill="#12121F"/>
<path d="M53.3083 26.1584V31.84H52.5212L49.6332 27.6733H49.5802V31.84H48.7216V26.1584H49.5151L52.4053 30.3309H52.4582V26.1584H53.3083Z" fill="#12121F"/>
<path d="M55.2205 31.84V26.1584H58.7825V26.8962H56.077V28.6279H58.5965V29.3627H56.077V31.1023H58.8155V31.84H55.2205Z" fill="#12121F"/>
<path d="M60.2765 26.8962V26.1584H64.6743V26.8962H62.9019V31.84H62.0475V26.8962H60.2765Z" fill="#12121F"/>
<path d="M67.5561 31.8403L65.9818 26.1588H66.8827L67.9897 30.5566H68.0419L69.1933 26.1566H70.0863L71.2383 30.5588H71.2906L72.3954 26.1566H73.2999L71.7213 31.8382H70.8569L69.6605 27.5827H69.6162L68.424 31.8403H67.5561Z" fill="#12121F"/>
<path d="M79.5396 28.9993C79.5396 29.6061 79.4287 30.1273 79.2069 30.5628C79.004 30.9763 78.6878 31.3237 78.2953 31.5646C77.8951 31.7944 77.4418 31.9153 76.9804 31.9153C76.519 31.9153 76.0657 31.7944 75.6656 31.5646C75.2727 31.3218 74.9566 30.9728 74.7539 30.5578C74.5321 30.1223 74.4212 29.6018 74.4212 28.9964C74.4212 28.3911 74.5321 27.8699 74.7539 27.4329C74.957 27.0196 75.2731 26.6722 75.6656 26.4312C76.0655 26.201 76.5189 26.0798 76.9804 26.0798C77.4419 26.0798 77.8953 26.201 78.2953 26.4312C78.688 26.6718 79.0042 27.0193 79.2069 27.4329C79.4287 27.8709 79.5396 28.393 79.5396 28.9993ZM78.691 28.9993C78.691 28.5371 78.6165 28.1471 78.4677 27.8294C78.3382 27.5352 78.1262 27.2849 77.8573 27.1088C77.5934 26.9478 77.2903 26.8626 76.9811 26.8626C76.672 26.8626 76.3688 26.9478 76.1049 27.1088C75.8367 27.2852 75.6252 27.5354 75.496 27.8294C75.3471 28.1471 75.273 28.5371 75.2734 28.9993C75.2739 29.4616 75.3481 29.8513 75.496 30.1685C75.6253 30.4627 75.8367 30.7134 76.1049 30.8905C76.3691 31.0506 76.6722 31.1353 76.9811 31.1353C77.2901 31.1353 77.5931 31.0506 77.8573 30.8905C78.1261 30.7137 78.3381 30.463 78.4677 30.1685C78.6165 29.8513 78.691 29.4616 78.691 28.9993Z" fill="#12121F"/>
<path d="M81.2556 31.84V26.1584H83.2807C83.721 26.1584 84.0866 26.2343 84.3776 26.386C84.6549 26.5232 84.883 26.7426 85.0309 27.0143C85.179 27.2995 85.2529 27.6175 85.2456 27.9388C85.2538 28.2581 85.1798 28.5742 85.0309 28.8568C84.8816 29.1244 84.6528 29.3389 84.3762 29.4708C84.0857 29.6168 83.72 29.69 83.2792 29.6905H81.7451V28.952H83.202C83.4337 28.9604 83.6647 28.9196 83.8796 28.8325C84.0434 28.7636 84.1791 28.6413 84.2646 28.4855C84.3497 28.3161 84.3915 28.1283 84.3862 27.9388C84.3907 27.7458 84.3485 27.5545 84.2631 27.3813C84.1771 27.2232 84.0416 27.0975 83.8774 27.0236C83.6607 26.931 83.426 26.8877 83.1905 26.8969H82.1172V31.8436L81.2556 31.84ZM84.0599 29.2769L85.4638 31.84H84.4878L83.1111 29.2769H84.0599Z" fill="#12121F"/>
<path d="M86.9622 31.84V26.1584H87.8209V28.8712H87.8925L90.276 26.1584H91.3551L89.0653 28.7166L91.3658 31.84H90.3275L88.4907 29.3019L87.8159 30.0726V31.84H86.9622Z" fill="#12121F"/>
</svg>
